<svg xmlns="http://www.w3.org/2000/svg" viewBox="0 0 36.43 35.99"><defs><style>.cls-1,.cls-2,.cls-3,.cls-4{fill:none;stroke:#319f9e;stroke-width:0.8px;}.cls-1,.cls-3{stroke-miterlimit:10;}.cls-1{opacity:0.3;}.cls-2,.cls-3,.cls-4{stroke-linecap:round;}.cls-2,.cls-4{stroke-linejoin:round;}.cls-2{opacity:0.6;}</style></defs><title>User Management_1</title><g id="Ebene_2" data-name="Ebene 2"><g id="Ebene_1-2" data-name="Ebene 1"><path class="cls-1" d="M10,4.56V2.42a2,2,0,0,1,2-2H34a2,2,0,0,1,2,2v22a2,2,0,0,1-2,2H31.67"/><path class="cls-2" d="M5.22,9.54V7a2,2,0,0,1,2-2h22a2,2,0,0,1,2,2V29a2,2,0,0,1-2,2H26.68"/><path class="cls-3" d="M7.36,9.54H24.43a2,2,0,0,1,2,2v22a2,2,0,0,1-2,2h-22a2,2,0,0,1-2-2v-22a2,2,0,0,1,2-2H7.36"/><line class="cls-4" x1="13.45" y1="30.97" x2="21.25" y2="30.97"/><path class="cls-4" d="M17.12,22.66a2.57,2.57,0,0,0-.94,2.55c.19.88,1.6,1.53,2.46,1.73a7.92,7.92,0,0,1,3.66,1.42,4.59,4.59,0,0,1,1.37,1.84.57.57,0,0,1-.53.77H20.67"/><path class="cls-4" d="M13.47,14.16a5.06,5.06,0,0,1,3.58,8.59"/><line class="cls-4" x1="23.27" y1="30.97" x2="13.45" y2="30.97"/><line class="cls-4" x1="13.41" y1="30.97" x2="5.6" y2="30.97"/><path class="cls-4" d="M9.73,22.66a2.57,2.57,0,0,1,.94,2.55c-.19.88-1.6,1.53-2.46,1.73a8,8,0,0,0-3.66,1.42A4.59,4.59,0,0,0,3.18,30.2a.57.57,0,0,0,.53.77H6.18"/><path class="cls-4" d="M13.38,14.16A5.06,5.06,0,0,0,9.8,22.75"/><line class="cls-4" x1="3.59" y1="30.97" x2="13.41" y2="30.97"/></g></g></svg>